<?xml version="1.0" encoding="UTF-8"?>
<svg width="159px" height="53px" viewBox="0 0 159 53" version="1.1" xmlns="http://www.w3.org/2000/svg" xmlns:xlink="http://www.w3.org/1999/xlink">
    <!-- Generator: Sketch 51.2 (57519) - http://www.bohemiancoding.com/sketch -->
    <title>Artboard Copy 21</title>
    <desc>Created with Sketch.</desc>
    <defs></defs>
    <g id="Artboard-Copy-21" stroke="none" stroke-width="1" fill="none" fill-rule="evenodd">
        <path d="M36.2397536,30.2808792 C36.5243782,27.6275877 37.348323,25.128372 38.7115881,22.7832319 C41.627701,17.7668245 46.7565637,13.8543483 54.0981762,11.0458032 L37.4153343,39.862877 L37.4291146,39.9751978 C37.4110595,39.9609608 37.3930356,39.9467197 37.3750428,39.9324745 L37.3663908,39.9474195 C37.3633518,39.9377483 37.3603185,39.9280787 37.3572908,39.9184107 C32.729366,36.2495463 30.1658379,32.3106618 29.6667067,28.1017571 C29.1649992,23.8711288 30.758325,19.7258146 34.4466841,15.6658144 L36.2397536,30.2808792 Z M28.5426347,40.0033121 L11.9927983,10.9961665 C18.5457168,12.4977551 23.2653159,15.7653652 26.1515957,20.7989968 C29.0378755,25.8326283 29.8348885,32.2340667 28.5426347,40.0033121 Z" id="Combined-Shape" fill="#ffffff" fill-rule="nonzero"></path>
        <path d="M68.8217822,29.7748918 L71.2455446,21.7164502 L72.3326733,21.7164502 L69.3386139,31.2467532 L68.1980198,31.2467532 L66.1841584,23.2435065 L64.0990099,31.2467532 L62.8158416,31.2467532 L60,21.7164502 L61.0693069,21.7164502 L63.4574257,29.8484848 L65.5960396,21.7164502 L66.790099,21.7164502 L68.8217822,29.7748918 Z M80.1722772,26.2424242 C79.7207898,26.4386734 79.2633687,26.56746 78.8,26.6287879 C78.3366313,26.6901157 77.8732696,26.7391773 77.409901,26.775974 C76.5900949,26.8373019 75.9514874,27.0274154 75.4940594,27.3463203 C75.0366314,27.6652253 74.8079208,28.1497081 74.8079208,28.7997835 C74.8079208,29.0941573 74.8643559,29.3486642 74.9772277,29.5633117 C75.0900996,29.7779592 75.2386129,29.9558074 75.4227723,30.0968615 C75.6069316,30.2379156 75.8207909,30.3421714 76.0643564,30.409632 C76.307922,30.4770927 76.5544542,30.5108225 76.8039604,30.5108225 C77.2316853,30.5108225 77.6475227,30.4556283 78.0514851,30.3452381 C78.4554476,30.2348479 78.8148499,30.0661988 79.129703,29.8392857 C79.444556,29.6123726 79.6970288,29.3241359 79.8871287,28.9745671 C80.0772287,28.6249983 80.1722772,28.2110414 80.1722772,27.732684 L80.1722772,26.2424242 Z M78.3722772,25.6904762 C78.5742584,25.665945 78.8148501,25.6291489 79.0940594,25.5800866 C79.3732687,25.5310243 79.6019793,25.4635646 79.780198,25.3777056 C79.9584167,25.2918466 80.0683166,25.1477283 80.109901,24.9453463 C80.1514854,24.7429644 80.1722772,24.5559172 80.1722772,24.3841991 C80.1722772,23.8199827 79.9970315,23.3569643 79.6465347,22.9951299 C79.2960379,22.6332954 78.7049547,22.452381 77.8732673,22.452381 C77.5049487,22.452381 77.1663382,22.4861108 76.8574257,22.5535714 C76.5485133,22.6210321 76.278219,22.7375533 76.0465347,22.9031385 C75.8148503,23.0687238 75.6247532,23.2895008 75.4762376,23.5654762 C75.327722,23.8414516 75.2297032,24.1879489 75.1821782,24.6049784 L74.0950495,24.6049784 C74.1306932,24.040762 74.2554445,23.5593454 74.4693069,23.1607143 C74.6831694,22.7620831 74.9594042,22.4370503 75.2980198,22.1856061 C75.6366354,21.9341618 76.0287106,21.750181 76.4742574,21.633658 C76.9198042,21.5171351 77.3920767,21.4588745 77.8910891,21.4588745 C78.3544578,21.4588745 78.7910871,21.5110024 79.2009901,21.6152597 C79.6108931,21.7195171 79.9673252,21.8850999 80.270297,22.112013 C80.5732688,22.3389261 80.8108902,22.6424945 80.9831683,23.0227273 C81.1554464,23.4029601 81.2415842,23.8690449 81.2415842,24.4209957 L81.2415842,29.6093074 C81.2415842,30.0386024 81.3158408,30.3115074 81.4643564,30.4280303 C81.612872,30.5445533 81.912869,30.5169561 82.3643564,30.3452381 L82.3643564,31.2099567 C82.2811877,31.2344879 82.1594067,31.271284 81.9990099,31.3203463 C81.8386131,31.3694086 81.6811889,31.3939394 81.5267327,31.3939394 C81.3603952,31.3939394 81.2000008,31.3755413 81.0455446,31.3387446 C80.8673258,31.3142134 80.724753,31.2559528 80.6178218,31.163961 C80.5108906,31.0719692 80.4247528,30.9615807 80.3594059,30.8327922 C80.2940591,30.7040037 80.2495051,30.5629517 80.2257426,30.409632 C80.2019801,30.2563124 80.190099,30.093796 80.190099,29.9220779 C79.7386116,30.437232 79.2217851,30.8297245 78.639604,31.0995671 C78.0574228,31.3694097 77.4277262,31.504329 76.750495,31.504329 C76.3465326,31.504329 75.9574276,31.4491348 75.5831683,31.3387446 C75.208909,31.2283544 74.8792093,31.056639 74.5940594,30.8235931 C74.3089095,30.5905472 74.0831691,30.3053769 73.9168317,29.9680736 C73.7504942,29.6307703 73.6673267,29.2290788 73.6673267,28.762987 C73.6673267,27.1439313 74.7425635,26.1872309 76.8930693,25.8928571 L78.3722772,25.6904762 Z M91.4158416,26.4448052 C91.4158416,25.90512 91.3445552,25.3930399 91.2019802,24.9085498 C91.0594052,24.4240596 90.8544568,24.0009037 90.5871287,23.6390693 C90.3198006,23.2772348 89.9930712,22.9889982 89.6069307,22.7743506 C89.2207901,22.5597031 88.7841609,22.452381 88.2970297,22.452381 C87.7386111,22.452381 87.2574278,22.5658358 86.8534653,22.7927489 C86.4495029,23.019662 86.116833,23.3293631 85.8554455,23.7218615 C85.5940581,24.1143598 85.403961,24.5712456 85.2851485,25.0925325 C85.166336,25.6138193 85.1188118,26.1749609 85.1425743,26.775974 C85.1425743,27.3769871 85.2227715,27.9074652 85.3831683,28.3674242 C85.5435652,28.8273833 85.7663352,29.2168094 86.0514851,29.5357143 C86.3366351,29.8546192 86.669305,30.0968606 87.049505,30.2624459 C87.4297049,30.4280311 87.8455423,30.5108225 88.2970297,30.5108225 C88.7960421,30.5108225 89.2415822,30.4065667 89.6336634,30.1980519 C90.0257445,29.9895372 90.3524739,29.7043669 90.6138614,29.3425325 C90.8752488,28.980698 91.0742567,28.5514094 91.2108911,28.0546537 C91.3475254,27.5578979 91.4158416,27.0212872 91.4158416,26.4448052 Z M91.4158416,18 L92.4851485,18 L92.4851485,31.2467532 L91.4158416,31.2467532 L91.4158416,29.5725108 L91.380198,29.5725108 C91.2257418,29.8914157 91.0267339,30.1704533 90.7831683,30.409632 C90.5396027,30.6488107 90.2722787,30.8481233 89.9811881,31.0075758 C89.6900976,31.1670282 89.3901006,31.2896821 89.0811881,31.3755411 C88.7722757,31.4614001 88.4693084,31.504329 88.1722772,31.504329 C87.4237586,31.504329 86.7881214,31.3755424 86.2653465,31.1179654 C85.7425716,30.8603883 85.3118829,30.5077584 84.9732673,30.0600649 C84.6346518,29.6123715 84.3881196,29.0818934 84.2336634,28.4686147 C84.0792071,27.855336 84.0019802,27.1991377 84.0019802,26.5 C84.0019802,25.837659 84.0851477,25.1998588 84.2514851,24.5865801 C84.4178226,23.9733014 84.6702953,23.4366906 85.0089109,22.9767316 C85.3475264,22.5167726 85.7752449,22.1488109 86.2920792,21.8728355 C86.8089135,21.5968601 87.4178183,21.4588745 88.1188119,21.4588745 C88.7722805,21.4588745 89.3990069,21.6091255 89.9990099,21.909632 C90.5990129,22.2101386 91.0712854,22.654759 91.4158416,23.2435065 L91.4158416,18 Z M101.465347,26.2424242 C101.013859,26.4386734 100.556438,26.56746 100.093069,26.6287879 C99.6297007,26.6901157 99.166339,26.7391773 98.7029703,26.775974 C97.8831642,26.8373019 97.2445567,27.0274154 96.7871287,27.3463203 C96.3297007,27.6652253 96.1009901,28.1497081 96.1009901,28.7997835 C96.1009901,29.0941573 96.1574252,29.3486642 96.270297,29.5633117 C96.3831689,29.7779592 96.5316822,29.9558074 96.7158416,30.0968615 C96.9000009,30.2379156 97.1138602,30.3421714 97.3574257,30.409632 C97.6009913,30.4770927 97.8475235,30.5108225 98.0970297,30.5108225 C98.5247546,30.5108225 98.940592,30.4556283 99.3445545,30.3452381 C99.7485169,30.2348479 100.107919,30.0661988 100.422772,29.8392857 C100.737625,29.6123726 100.990098,29.3241359 101.180198,28.9745671 C101.370298,28.6249983 101.465347,28.2110414 101.465347,27.732684 L101.465347,26.2424242 Z M99.6653465,25.6904762 C99.8673277,25.665945 100.107919,25.6291489 100.387129,25.5800866 C100.666338,25.5310243 100.895049,25.4635646 101.073267,25.3777056 C101.251486,25.2918466 101.361386,25.1477283 101.40297,24.9453463 C101.444555,24.7429644 101.465347,24.5559172 101.465347,24.3841991 C101.465347,23.8199827 101.290101,23.3569643 100.939604,22.9951299 C100.589107,22.6332954 99.998024,22.452381 99.1663366,22.452381 C98.798018,22.452381 98.4594075,22.4861108 98.150495,22.5535714 C97.8415826,22.6210321 97.5712883,22.7375533 97.339604,22.9031385 C97.1079196,23.0687238 96.9178225,23.2895008 96.7693069,23.5654762 C96.6207913,23.8414516 96.5227725,24.1879489 96.4752475,24.6049784 L95.3881188,24.6049784 C95.4237626,24.040762 95.5485138,23.5593454 95.7623762,23.1607143 C95.9762387,22.7620831 96.2524736,22.4370503 96.5910891,22.1856061 C96.9297047,21.9341618 97.32178,21.750181 97.7673267,21.633658 C98.2128735,21.5171351 98.685146,21.4588745 99.1841584,21.4588745 C99.6475271,21.4588745 100.084156,21.5110024 100.494059,21.6152597 C100.903962,21.7195171 101.260395,21.8850999 101.563366,22.112013 C101.866338,22.3389261 102.10396,22.6424945 102.276238,23.0227273 C102.448516,23.4029601 102.534653,23.8690449 102.534653,24.4209957 L102.534653,29.6093074 C102.534653,30.0386024 102.60891,30.3115074 102.757426,30.4280303 C102.905941,30.5445533 103.205938,30.5169561 103.657426,30.3452381 L103.657426,31.2099567 C103.574257,31.2344879 103.452476,31.271284 103.292079,31.3203463 C103.131682,31.3694086 102.974258,31.3939394 102.819802,31.3939394 C102.653465,31.3939394 102.49307,31.3755413 102.338614,31.3387446 C102.160395,31.3142134 102.017822,31.2559528 101.910891,31.163961 C101.80396,31.0719692 101.717822,30.9615807 101.652475,30.8327922 C101.587128,30.7040037 101.542574,30.5629517 101.518812,30.409632 C101.495049,30.2563124 101.483168,30.093796 101.483168,29.9220779 C101.031681,30.437232 100.514854,30.8297245 99.9326733,31.0995671 C99.3504921,31.3694097 98.7207955,31.504329 98.0435644,31.504329 C97.6396019,31.504329 97.2504969,31.4491348 96.8762376,31.3387446 C96.5019783,31.2283544 96.1722787,31.056639 95.8871287,30.8235931 C95.6019788,30.5905472 95.3762385,30.3053769 95.209901,29.9680736 C95.0435635,29.6307703 94.960396,29.2290788 94.960396,28.762987 C94.960396,27.1439313 96.0356328,26.1872309 98.1861386,25.8928571 L99.6653465,25.6904762 Z M105.508911,33.8409091 C105.651486,33.8654402 105.797029,33.889971 105.945545,33.9145022 C106.09406,33.9390333 106.245544,33.9512987 106.4,33.9512987 C106.697031,33.9512987 106.940593,33.8531756 107.130693,33.6569264 C107.320793,33.4606772 107.478217,33.2245685 107.60297,32.9485931 C107.727723,32.6726177 107.831683,32.384381 107.914851,32.0838745 C107.99802,31.7833679 108.093069,31.5288611 108.2,31.3203463 L104.617822,21.7164502 L105.811881,21.7164502 L108.770297,29.9036797 L111.728713,21.7164502 L112.887129,21.7164502 L109.447525,31.1179654 C109.233662,31.7189785 109.028714,32.2586556 108.832673,32.737013 C108.636633,33.2153704 108.428714,33.6231946 108.208911,33.9604978 C107.989108,34.2978011 107.745546,34.5553743 107.478218,34.7332251 C107.21089,34.9110759 106.893071,35 106.524752,35 C106.334653,35 106.153466,34.9877346 105.981188,34.9632035 C105.80891,34.9386723 105.651486,34.9080088 105.508911,34.8712121 L105.508911,33.8409091 Z M120.780198,26.2424242 C120.328711,26.4386734 119.871289,26.56746 119.407921,26.6287879 C118.944552,26.6901157 118.48119,26.7391773 118.017822,26.775974 C117.198016,26.8373019 116.559408,27.0274154 116.10198,27.3463203 C115.644552,27.6652253 115.415842,28.1497081 115.415842,28.7997835 C115.415842,29.0941573 115.472277,29.3486642 115.585149,29.5633117 C115.69802,29.7779592 115.846534,29.9558074 116.030693,30.0968615 C116.214852,30.2379156 116.428712,30.3421714 116.672277,30.409632 C116.915843,30.4770927 117.162375,30.5108225 117.411881,30.5108225 C117.839606,30.5108225 118.255444,30.4556283 118.659406,30.3452381 C119.063368,30.2348479 119.422771,30.0661988 119.737624,29.8392857 C120.052477,29.6123726 120.30495,29.3241359 120.49505,28.9745671 C120.685149,28.6249983 120.780198,28.2110414 120.780198,27.732684 L120.780198,26.2424242 Z M118.980198,25.6904762 C119.182179,25.665945 119.422771,25.6291489 119.70198,25.5800866 C119.98119,25.5310243 120.2099,25.4635646 120.388119,25.3777056 C120.566338,25.2918466 120.676237,25.1477283 120.717822,24.9453463 C120.759406,24.7429644 120.780198,24.5559172 120.780198,24.3841991 C120.780198,23.8199827 120.604952,23.3569643 120.254455,22.9951299 C119.903959,22.6332954 119.312875,22.452381 118.481188,22.452381 C118.112869,22.452381 117.774259,22.4861108 117.465347,22.5535714 C117.156434,22.6210321 116.88614,22.7375533 116.654455,22.9031385 C116.422771,23.0687238 116.232674,23.2895008 116.084158,23.5654762 C115.935643,23.8414516 115.837624,24.1879489 115.790099,24.6049784 L114.70297,24.6049784 C114.738614,24.040762 114.863365,23.5593454 115.077228,23.1607143 C115.29109,22.7620831 115.567325,22.4370503 115.905941,22.1856061 C116.244556,21.9341618 116.636631,21.750181 117.082178,21.633658 C117.527725,21.5171351 117.999998,21.4588745 118.49901,21.4588745 C118.962379,21.4588745 119.399008,21.5110024 119.808911,21.6152597 C120.218814,21.7195171 120.575246,21.8850999 120.878218,22.112013 C121.18119,22.3389261 121.418811,22.6424945 121.591089,23.0227273 C121.763367,23.4029601 121.849505,23.8690449 121.849505,24.4209957 L121.849505,29.6093074 C121.849505,30.0386024 121.923762,30.3115074 122.072277,30.4280303 C122.220793,30.5445533 122.52079,30.5169561 122.972277,30.3452381 L122.972277,31.2099567 C122.889108,31.2344879 122.767328,31.271284 122.606931,31.3203463 C122.446534,31.3694086 122.28911,31.3939394 122.134653,31.3939394 C121.968316,31.3939394 121.807922,31.3755413 121.653465,31.3387446 C121.475247,31.3142134 121.332674,31.2559528 121.225743,31.163961 C121.118811,31.0719692 121.032674,30.9615807 120.967327,30.8327922 C120.90198,30.7040037 120.857426,30.5629517 120.833663,30.409632 C120.809901,30.2563124 120.79802,30.093796 120.79802,29.9220779 C120.346532,30.437232 119.829706,30.8297245 119.247525,31.0995671 C118.665344,31.3694097 118.035647,31.504329 117.358416,31.504329 C116.954453,31.504329 116.565348,31.4491348 116.191089,31.3387446 C115.81683,31.2283544 115.48713,31.056639 115.20198,30.8235931 C114.91683,30.5905472 114.69109,30.3053769 114.524752,29.9680736 C114.358415,29.6307703 114.275248,29.2290788 114.275248,28.762987 C114.275248,27.1439313 115.350484,26.1872309 117.50099,25.8928571 L118.980198,25.6904762 Z M125.964356,31.2467532 L124.89505,31.2467532 L124.89505,21.7164502 L125.964356,21.7164502 L125.964356,23.0411255 C126.392081,22.5750337 126.834651,22.1948067 127.292079,21.9004329 C127.749507,21.6060591 128.299007,21.4588745 128.940594,21.4588745 C129.510894,21.4588745 130.039602,21.5600639 130.526733,21.7624459 C131.013864,21.9648279 131.423761,22.3174578 131.756436,22.8203463 C131.982179,23.1637824 132.115841,23.5164123 132.157426,23.8782468 C132.19901,24.2400812 132.219802,24.6172419 132.219802,25.0097403 L132.219802,31.2467532 L131.150495,31.2467532 L131.150495,25.0281385 C131.150495,24.1695484 130.966338,23.5256154 130.59802,23.0963203 C130.229701,22.6670253 129.617826,22.452381 128.762376,22.452381 C128.429701,22.452381 128.126734,22.5045089 127.853465,22.6087662 C127.580197,22.7130236 127.333664,22.8510092 127.113861,23.0227273 C126.894058,23.1944453 126.706931,23.3906915 126.552475,23.6114719 C126.398019,23.8322522 126.279208,24.0652946 126.19604,24.3106061 C126.089108,24.6172454 126.023762,24.9116148 126,25.1937229 C125.976238,25.4758311 125.964356,25.7824659 125.964356,26.1136364 L125.964356,31.2467532 Z M138.722772,31.504329 C138.12871,31.4920634 137.57327,31.3816749 137.056436,31.1731602 C136.539601,30.9646454 136.088121,30.651878 135.70198,30.2348485 C135.31584,29.817819 135.009902,29.2965399 134.784158,28.6709957 C134.558415,28.0454514 134.445545,27.3156607 134.445545,26.4816017 C134.445545,25.782464 134.534653,25.129332 134.712871,24.5221861 C134.89109,23.9150403 135.158414,23.3845622 135.514851,22.9307359 C135.871289,22.4769097 136.316829,22.1181471 136.851485,21.8544372 C137.386141,21.5907274 138.009897,21.4588745 138.722772,21.4588745 C139.447528,21.4588745 140.077225,21.5907274 140.611881,21.8544372 C141.146537,22.1181471 141.592077,22.4738434 141.948515,22.9215368 C142.304952,23.3692302 142.569306,23.8997083 142.741584,24.512987 C142.913862,25.1262657 143,25.782464 143,26.4816017 C143,27.2420673 142.899011,27.9289291 142.69703,28.5422078 C142.495048,29.1554865 142.206933,29.6828982 141.832673,30.1244589 C141.458414,30.5660195 141.006933,30.9063841 140.478218,31.1455628 C139.949502,31.3847415 139.36436,31.504329 138.722772,31.504329 Z M141.859406,26.4816017 C141.859406,25.9173853 141.800001,25.3899736 141.681188,24.8993506 C141.562376,24.4087277 141.378219,23.9825054 141.128713,23.620671 C140.879207,23.2588366 140.558418,22.9736663 140.166337,22.7651515 C139.774255,22.5566368 139.293072,22.452381 138.722772,22.452381 C138.164354,22.452381 137.686141,22.5658358 137.288119,22.7927489 C136.890097,23.019662 136.566338,23.3201641 136.316832,23.6942641 C136.067325,24.0683641 135.883169,24.4976527 135.764356,24.9821429 C135.645544,25.466633 135.586139,25.9664476 135.586139,26.4816017 C135.586139,27.0703493 135.654455,27.6130928 135.791089,28.1098485 C135.927723,28.6066042 136.126731,29.0328265 136.388119,29.3885281 C136.649506,29.7442298 136.976236,30.020201 137.368317,30.2164502 C137.760398,30.4126994 138.211879,30.5108225 138.722772,30.5108225 C139.281191,30.5108225 139.759404,30.3973677 140.157426,30.1704545 C140.555448,29.9435414 140.879207,29.639973 141.128713,29.2597403 C141.378219,28.8795075 141.562376,28.4502188 141.681188,27.9718615 C141.800001,27.4935041 141.859406,26.9967558 141.859406,26.4816017 Z" id="wadayano" fill-opacity="1.0" fill="#ffffff"></path>
    </g>
</svg>